<?xml version="1.0" encoding="utf-8"?>
<!-- Generator: Adobe Illustrator 21.0.0, SVG Export Plug-In . SVG Version: 6.00 Build 0)  -->
<svg version="1.1" id="Layer_1" xmlns="http://www.w3.org/2000/svg" xmlns:xlink="http://www.w3.org/1999/xlink" x="0px" y="0px"
	 viewBox="0 0 605 607.3" style="enable-background:new 0 0 605 607.3;" xml:space="preserve">
<style type="text/css">
	.st0{stroke:#E31E26;stroke-width:10.045;stroke-miterlimit:10;}
	.st1{enable-background:new    ;}
	.st2{fill:#E31E26;}
</style>
<rect x="8.5" y="11.6" class="st0" width="586.5" height="586.5"/>
<g>
	<g class="st1">
		<path class="st2" d="M99.3,111.5c29.2-4.4,63.9-7.7,101.9-7.7c68.9,0,117.9,16,150.4,46.3c33.1,30.3,52.3,73.3,52.3,133.3
			c0,60.6-18.7,110.2-53.4,144.4c-34.7,34.7-92,53.4-164.2,53.4c-34.2,0-62.8-1.7-87.1-4.4V111.5z M147.2,439.9
			c12.1,2.2,29.8,2.8,48.5,2.8c102.5,0,158.1-57.3,158.1-157.6c0.6-87.6-49-143.3-150.4-143.3c-24.8,0-43.5,2.2-56.2,5V439.9z"/>
	</g>
	<g class="st1">
		<path class="st2" d="M431.9,355.8c0-20.9-0.4-38.9-1.5-55.4h28.2l1.1,34.8h1.5c8.1-23.8,27.5-38.9,49.1-38.9
			c3.7,0,6.2,0.4,9.2,1.1v30.4c-3.3-0.7-6.6-1.1-11-1.1c-22.7,0-38.9,17.2-43.3,41.4c-0.7,4.4-1.5,9.5-1.5,15v94.6h-31.9V355.8z"/>
	</g>
</g>
</svg>
