<?xml version="1.0" encoding="utf-8"?>
<!-- Generator: Adobe Illustrator 21.0.0, SVG Export Plug-In . SVG Version: 6.00 Build 0)  -->
<svg version="1.1" id="Layer_1" xmlns="http://www.w3.org/2000/svg" xmlns:xlink="http://www.w3.org/1999/xlink" x="0px" y="0px"
	 viewBox="0 0 612 792" style="enable-background:new 0 0 612 792;" xml:space="preserve">
<style type="text/css">
	.st0{enable-background:new    ;}
	.st1{fill:#D93227;}
</style>
<g>
	<g>
		<g class="st0">
			<path class="st1" d="M186.8,488.4c19.4,12,47.8,21.9,77.8,21.9c44.4,0,70.3-23.4,70.3-57.3c0-31.4-17.9-49.3-63.3-66.8
				c-54.8-19.4-88.7-47.8-88.7-95.2c0-52.3,43.4-91.2,108.7-91.2c34.4,0,59.3,8,74.3,16.4l-12,35.4c-11-6-33.4-15.9-63.8-15.9
				c-45.9,0-63.3,27.4-63.3,50.3c0,31.4,20.4,46.9,66.8,64.8c56.8,21.9,85.7,49.3,85.7,98.7c0,51.8-38.4,96.7-117.6,96.7
				c-32.4,0-67.8-9.5-85.7-21.4L186.8,488.4z"/>
		</g>
		<rect x="263.6" y="178.7" class="st1" width="28.5" height="50.7"/>
		<rect x="263.6" y="515.8" class="st1" width="28.5" height="50.7"/>
	</g>
	<g>
		<g class="st0">
			<path class="st1" d="M408.4,566.9c11.1,6.8,27.3,12.5,44.3,12.5c25.3,0,40-13.3,40-32.7c0-17.9-10.2-28.1-36.1-38.1
				c-31.2-11.1-50.5-27.3-50.5-54.2c0-29.8,24.7-52,61.9-52c19.6,0,33.8,4.5,42.3,9.4l-6.8,20.2c-6.2-3.4-19-9.1-36.3-9.1
				c-26.1,0-36.1,15.6-36.1,28.7c0,17.9,11.6,26.7,38.1,36.9c32.4,12.5,48.8,28.1,48.8,56.2c0,29.5-21.9,55.1-67,55.1
				c-18.5,0-38.6-5.4-48.8-12.2L408.4,566.9z"/>
		</g>
		<rect x="452.1" y="390.4" class="st1" width="16.2" height="28.9"/>
		<rect x="452.1" y="582.5" class="st1" width="16.2" height="28.9"/>
	</g>
	<g>
		<g class="st0">
			<path class="st1" d="M93.6,266.8c7.2,4.4,17.7,8.1,28.7,8.1c16.4,0,25.9-8.6,25.9-21.1c0-11.6-6.6-18.2-23.4-24.6
				c-20.2-7.2-32.7-17.7-32.7-35.1c0-19.3,16-33.7,40.1-33.7c12.7,0,21.9,2.9,27.4,6.1l-4.4,13.1c-4-2.2-12.3-5.9-23.5-5.9
				c-16.9,0-23.4,10.1-23.4,18.6c0,11.6,7.5,17.3,24.6,23.9c21,8.1,31.6,18.2,31.6,36.4c0,19.1-14.2,35.7-43.4,35.7
				c-12,0-25-3.5-31.6-7.9L93.6,266.8z"/>
		</g>
		<rect x="121.9" y="152.5" class="st1" width="10.5" height="18.7"/>
		<rect x="121.9" y="276.9" class="st1" width="10.5" height="18.7"/>
	</g>
</g>
</svg>
