<?xml version="1.0" encoding="utf-8"?>
<!-- Generator: Adobe Illustrator 21.0.0, SVG Export Plug-In . SVG Version: 6.00 Build 0)  -->
<svg version="1.1" id="Layer_1" xmlns="http://www.w3.org/2000/svg" xmlns:xlink="http://www.w3.org/1999/xlink" x="0px" y="0px"
	 viewBox="0 0 612 792" style="enable-background:new 0 0 612 792;" xml:space="preserve">
<style type="text/css">
	.st0{fill:#E02726;}
	.st1{fill:#E12926;}
	.st2{fill:#FFFFFF;}
	.st3{fill:none;}
	.st4{fill:none;stroke:#E02726;stroke-width:12.7305;stroke-miterlimit:10;}
	.st5{fill:none;stroke:#E02726;stroke-width:11.4574;stroke-miterlimit:10;}
	.st6{fill:#E12926;stroke:#F8F7F7;stroke-width:6.3268;stroke-miterlimit:10;}
	.st7{fill:#FFFFFF;stroke:#F8F7F7;stroke-width:6.3268;stroke-miterlimit:10;}
	.st8{fill:none;stroke:#F8F7F7;stroke-width:2.3001;stroke-miterlimit:10;}
</style>
<g>
	
		<rect x="312.4" y="353.9" transform="matrix(0.9806 -0.1962 0.1962 0.9806 -64.4531 70.0479)" class="st0" width="18" height="12.9"/>
	<g>
		
			<ellipse transform="matrix(0.9806 -0.1962 0.1962 0.9806 -72.872 43.0933)" class="st1" cx="181.1" cy="389.4" rx="135.1" ry="135.1"/>
		
			<ellipse transform="matrix(0.9806 -0.1962 0.1962 0.9806 -72.872 43.0933)" class="st2" cx="181.1" cy="389.4" rx="101" ry="101"/>
		
			<ellipse transform="matrix(0.9806 -0.1962 0.1962 0.9806 -72.872 43.0933)" class="st1" cx="181.1" cy="389.4" rx="42.1" ry="42.1"/>
		<line class="st3" x1="173.2" y1="349.6" x2="161.2" y2="290.4"/>
		<line class="st4" x1="161.2" y1="290.4" x2="199.7" y2="488.6"/>
		<line class="st5" x1="76.1" y1="352.4" x2="288.7" y2="424.3"/>
		<line class="st4" x1="259.8" y1="318.9" x2="103.9" y2="455.9"/>
		
			<rect x="146.6" y="239.2" transform="matrix(0.9806 -0.1962 0.1962 0.9806 -45.7067 34.8427)" class="st0" width="12.9" height="18"/>
		
			<rect x="80.3" y="272" transform="matrix(0.7511 -0.6602 0.6602 0.7511 -163.92 127.1645)" class="st0" width="12.9" height="18"/>
		
			<rect x="39.2" y="333.7" transform="matrix(0.3203 -0.9473 0.9473 0.3203 -293.5875 276.0864)" class="st0" width="12.9" height="17.9"/>
		
			<rect x="32" y="410.1" transform="matrix(0.9806 -0.1962 0.1962 0.9806 -80.9178 16.1348)" class="st0" width="18" height="12.9"/>
		
			<rect x="64.8" y="476.4" transform="matrix(0.7511 -0.6602 0.6602 0.7511 -300.4143 168.886)" class="st0" width="18" height="12.9"/>
		
			<rect x="126.4" y="517.4" transform="matrix(0.3203 -0.9473 0.9473 0.3203 -404.245 484.3014)" class="st0" width="17.9" height="12.9"/>
		
			<rect x="202.9" y="519.6" transform="matrix(0.9806 -0.1962 0.1962 0.9806 -99.6366 51.3387)" class="st0" width="12.9" height="18"/>
		
			<rect x="269.2" y="486.8" transform="matrix(0.7511 -0.6602 0.6602 0.7511 -258.7263 305.3568)" class="st0" width="12.9" height="18"/>
		
			<rect x="310.3" y="425.2" transform="matrix(0.3203 -0.9473 0.9473 0.3203 -196.0182 595.1121)" class="st0" width="12.9" height="17.9"/>
		
			<rect x="279.6" y="287.5" transform="matrix(0.7511 -0.6602 0.6602 0.7511 -122.2218 263.6924)" class="st0" width="18" height="12.9"/>
		
			<rect x="218" y="246.5" transform="matrix(0.3203 -0.9473 0.9473 0.3203 -85.3179 386.9174)" class="st0" width="17.9" height="12.9"/>
	</g>
	<g>
		<path class="st6" d="M367.7,553.9l213.4-192c-53-58.9-143.7-63.7-202.7-10.7S314.8,495,367.7,553.9z"/>
		<path class="st7" d="M399.3,486.6l110.5-99.4c-29.2-32.3-77.5-36.4-108-8.9C371.3,405.8,370.1,454.3,399.3,486.6z"/>
		<g>
			<line class="st8" x1="386.2" y1="358.9" x2="395" y2="368.8"/>
			<line class="st8" x1="381.3" y1="363.7" x2="390.6" y2="373.2"/>
			<line class="st8" x1="376.6" y1="368.8" x2="386.4" y2="377.7"/>
			<line class="st8" x1="372.3" y1="374.2" x2="382.5" y2="382.6"/>
			<line class="st8" x1="368.2" y1="379.8" x2="378.8" y2="387.5"/>
			<line class="st8" x1="364.4" y1="385.5" x2="375.5" y2="392.8"/>
			<line class="st8" x1="360.8" y1="391.4" x2="372.3" y2="398.1"/>
			<line class="st8" x1="357.7" y1="397.6" x2="369.5" y2="403.6"/>
			<line class="st8" x1="354.9" y1="403.8" x2="367" y2="409.3"/>
			<line class="st8" x1="352.3" y1="410.2" x2="364.7" y2="415"/>
			<line class="st8" x1="350.2" y1="416.8" x2="362.8" y2="420.9"/>
			<line class="st8" x1="348.4" y1="423.4" x2="361.1" y2="426.9"/>
			<line class="st8" x1="346.8" y1="430.2" x2="359.8" y2="433"/>
			<line class="st8" x1="345.7" y1="436.9" x2="358.8" y2="439.1"/>
			<line class="st8" x1="344.9" y1="443.8" x2="358.2" y2="445.2"/>
			<line class="st8" x1="344.5" y1="450.7" x2="357.8" y2="451.5"/>
			<line class="st8" x1="344.5" y1="457.6" x2="357.8" y2="457.7"/>
			<line class="st8" x1="344.8" y1="464.4" x2="358" y2="463.8"/>
			<line class="st8" x1="345.4" y1="471.3" x2="358.7" y2="470"/>
			<line class="st8" x1="346.5" y1="478.2" x2="359.6" y2="476.2"/>
			<line class="st8" x1="347.9" y1="484.9" x2="360.8" y2="482.3"/>
			<line class="st8" x1="349.6" y1="491.6" x2="362.5" y2="488.2"/>
			<line class="st8" x1="351.7" y1="498.2" x2="364.3" y2="494.1"/>
			<line class="st8" x1="354.1" y1="504.7" x2="366.6" y2="500"/>
			<line class="st8" x1="356.9" y1="510.9" x2="369" y2="505.6"/>
			<line class="st8" x1="360" y1="517.1" x2="371.8" y2="511.2"/>
			<line class="st8" x1="363.4" y1="523.1" x2="374.8" y2="516.5"/>
			<line class="st8" x1="367.1" y1="528.9" x2="378.3" y2="521.7"/>
			<line class="st8" x1="371.2" y1="534.5" x2="381.8" y2="526.8"/>
		</g>
		<g>
			<line class="st8" x1="385.9" y1="358.5" x2="394.7" y2="368.5"/>
			<line class="st8" x1="391.3" y1="354.2" x2="399.5" y2="364.6"/>
			<line class="st8" x1="396.9" y1="350.2" x2="404.5" y2="360.9"/>
			<line class="st8" x1="402.6" y1="346.4" x2="409.7" y2="357.6"/>
			<line class="st8" x1="408.6" y1="343" x2="415.2" y2="354.6"/>
			<line class="st8" x1="414.8" y1="339.9" x2="420.7" y2="351.8"/>
			<line class="st8" x1="421.1" y1="337.1" x2="426.4" y2="349.2"/>
			<line class="st8" x1="427.6" y1="334.7" x2="432.3" y2="347.1"/>
			<line class="st8" x1="434" y1="332.6" x2="438.1" y2="345.2"/>
			<line class="st8" x1="440.8" y1="330.9" x2="444.1" y2="343.6"/>
			<line class="st8" x1="447.5" y1="329.5" x2="450.2" y2="342.4"/>
			<line class="st8" x1="454.3" y1="328.4" x2="456.3" y2="341.5"/>
			<line class="st8" x1="461.2" y1="327.7" x2="462.4" y2="340.8"/>
			<line class="st8" x1="468" y1="327.3" x2="468.7" y2="340.6"/>
			<line class="st8" x1="474.9" y1="327.3" x2="474.9" y2="340.6"/>
			<line class="st8" x1="481.8" y1="327.7" x2="481" y2="341"/>
			<line class="st8" x1="488.7" y1="328.5" x2="487.3" y2="341.7"/>
			<line class="st8" x1="495.5" y1="329.6" x2="493.4" y2="342.6"/>
			<line class="st8" x1="502.3" y1="331" x2="499.5" y2="344"/>
			<line class="st8" x1="508.9" y1="332.9" x2="505.5" y2="345.7"/>
			<line class="st8" x1="515.4" y1="335" x2="511.3" y2="347.6"/>
			<line class="st8" x1="521.9" y1="337.5" x2="517" y2="349.9"/>
			<line class="st8" x1="528.1" y1="340.3" x2="522.6" y2="352.4"/>
			<line class="st8" x1="534.2" y1="343.5" x2="528.2" y2="355.2"/>
			<line class="st8" x1="540.2" y1="346.9" x2="533.6" y2="358.4"/>
			<line class="st8" x1="546.1" y1="350.8" x2="538.7" y2="361.8"/>
			<line class="st8" x1="551.5" y1="354.8" x2="543.8" y2="365.5"/>
			<line class="st8" x1="556.9" y1="359.2" x2="548.5" y2="369.5"/>
			<line class="st8" x1="562" y1="363.7" x2="553.1" y2="373.5"/>
		</g>
	</g>
</g>
</svg>
